<svg viewBox="0 0 330 200" xmlns="http://www.w3.org/2000/svg"><g><g><g><g><g><line x1="54" y1="177" x2="49" y2="177" style="visibility: inherit;" fill="rgb(0, 0, 0)" stroke="rgb(204, 204, 204)" stroke-width="1px"></line><line x1="54" y1="163.3846153846154" x2="49" y2="163.3846153846154" style="visibility: inherit;" fill="rgb(0, 0, 0)" stroke="rgb(204, 204, 204)" stroke-width="1px"></line><line x1="54" y1="149.76923076923077" x2="49" y2="149.76923076923077" style="visibility: inherit;" fill="rgb(0, 0, 0)" stroke="rgb(204, 204, 204)" stroke-width="1px"></line><line x1="54" y1="136.15384615384613" x2="49" y2="136.15384615384613" style="visibility: inherit;" fill="rgb(0, 0, 0)" stroke="rgb(204, 204, 204)" stroke-width="1px"></line><line x1="54" y1="122.53846153846153" x2="49" y2="122.53846153846153" style="visibility: inherit;" fill="rgb(0, 0, 0)" stroke="rgb(204, 204, 204)" stroke-width="1px"></line><line x1="54" y1="108.92307692307693" x2="49" y2="108.92307692307693" style="visibility: inherit;" fill="rgb(0, 0, 0)" stroke="rgb(204, 204, 204)" stroke-width="1px"></line><line x1="54" y1="95.3076923076923" x2="49" y2="95.3076923076923" style="visibility: inherit;" fill="rgb(0, 0, 0)" stroke="rgb(204, 204, 204)" stroke-width="1px"></line><line x1="54" y1="81.6923076923077" x2="49" y2="81.6923076923077" style="visibility: inherit;" fill="rgb(0, 0, 0)" stroke="rgb(204, 204, 204)" stroke-width="1px"></line><line x1="54" y1="68.07692307692307" x2="49" y2="68.07692307692307" style="visibility: inherit;" fill="rgb(0, 0, 0)" stroke="rgb(204, 204, 204)" stroke-width="1px"></line><line x1="54" y1="54.46153846153847" x2="49" y2="54.46153846153847" style="visibility: inherit;" fill="rgb(0, 0, 0)" stroke="rgb(204, 204, 204)" stroke-width="1px"></line><line x1="54" y1="40.84615384615384" x2="49" y2="40.84615384615384" style="visibility: inherit;" fill="rgb(0, 0, 0)" stroke="rgb(204, 204, 204)" stroke-width="1px"></line><line x1="54" y1="27.230769230769234" x2="49" y2="27.230769230769234" style="visibility: inherit;" fill="rgb(0, 0, 0)" stroke="rgb(204, 204, 204)" stroke-width="1px"></line><line x1="54" y1="13.615384615384606" x2="49" y2="13.615384615384606" style="visibility: inherit;" fill="rgb(0, 0, 0)" stroke="rgb(204, 204, 204)" stroke-width="1px"></line><line x1="54" y1="0" x2="49" y2="0" style="visibility: inherit;" fill="rgb(0, 0, 0)" stroke="rgb(204, 204, 204)" stroke-width="1px"></line></g><g transform="translate(44, 0)"><text x="0" y="177" dx="0em" dy="0.3em" style="text-anchor: end; visibility: hidden; font-family: Roboto, sans-serif; font-size: 12px; font-weight: 200;" fill="rgb(33, 33, 33)" stroke="none" stroke-width="1px">-390</text><text x="0" y="163.3846153846154" dx="0em" dy="0.3em" style="text-anchor: end; visibility: inherit; font-family: Roboto, sans-serif; font-size: 12px; font-weight: 200;" fill="rgb(33, 33, 33)" stroke="none" stroke-width="1px">-380</text><text x="0" y="149.76923076923077" dx="0em" dy="0.3em" style="text-anchor: end; visibility: hidden; font-family: Roboto, sans-serif; font-size: 12px; font-weight: 200;" fill="rgb(33, 33, 33)" stroke="none" stroke-width="1px">-370</text><text x="0" y="136.15384615384613" dx="0em" dy="0.3em" style="text-anchor: end; visibility: inherit; font-family: Roboto, sans-serif; font-size: 12px; font-weight: 200;" fill="rgb(33, 33, 33)" stroke="none" stroke-width="1px">-360</text><text x="0" y="122.53846153846153" dx="0em" dy="0.3em" style="text-anchor: end; visibility: hidden; font-family: Roboto, sans-serif; font-size: 12px; font-weight: 200;" fill="rgb(33, 33, 33)" stroke="none" stroke-width="1px">-350</text><text x="0" y="108.92307692307693" dx="0em" dy="0.3em" style="text-anchor: end; visibility: inherit; font-family: Roboto, sans-serif; font-size: 12px; font-weight: 200;" fill="rgb(33, 33, 33)" stroke="none" stroke-width="1px">-340</text><text x="0" y="95.3076923076923" dx="0em" dy="0.3em" style="text-anchor: end; visibility: hidden; font-family: Roboto, sans-serif; font-size: 12px; font-weight: 200;" fill="rgb(33, 33, 33)" stroke="none" stroke-width="1px">-330</text><text x="0" y="81.6923076923077" dx="0em" dy="0.3em" style="text-anchor: end; visibility: inherit; font-family: Roboto, sans-serif; font-size: 12px; font-weight: 200;" fill="rgb(33, 33, 33)" stroke="none" stroke-width="1px">-320</text><text x="0" y="68.07692307692307" dx="0em" dy="0.3em" style="text-anchor: end; visibility: hidden; font-family: Roboto, sans-serif; font-size: 12px; font-weight: 200;" fill="rgb(33, 33, 33)" stroke="none" stroke-width="1px">-310</text><text x="0" y="54.46153846153847" dx="0em" dy="0.3em" style="text-anchor: end; visibility: inherit; font-family: Roboto, sans-serif; font-size: 12px; font-weight: 200;" fill="rgb(33, 33, 33)" stroke="none" stroke-width="1px">-300</text><text x="0" y="40.84615384615384" dx="0em" dy="0.3em" style="text-anchor: end; visibility: hidden; font-family: Roboto, sans-serif; font-size: 12px; font-weight: 200;" fill="rgb(33, 33, 33)" stroke="none" stroke-width="1px">-290</text><text x="0" y="27.230769230769234" dx="0em" dy="0.3em" style="text-anchor: end; visibility: inherit; font-family: Roboto, sans-serif; font-size: 12px; font-weight: 200;" fill="rgb(33, 33, 33)" stroke="none" stroke-width="1px">-280</text><text x="0" y="13.615384615384606" dx="0em" dy="0.3em" style="text-anchor: end; visibility: hidden; font-family: Roboto, sans-serif; font-size: 12px; font-weight: 200;" fill="rgb(33, 33, 33)" stroke="none" stroke-width="1px">-270</text><text x="0" y="0" dx="0em" dy="0.3em" style="text-anchor: end; visibility: hidden; font-family: Roboto, sans-serif; font-size: 12px; font-weight: 200;" fill="rgb(33, 33, 33)" stroke="none" stroke-width="1px">-260</text></g><line x1="54" y1="0" x2="54" y2="177" fill="rgb(0, 0, 0)" stroke="rgb(204, 204, 204)" stroke-width="1px"></line></g></g><g transform="translate(54, 0)" clip-path="url(#clip_0)"><clipPath id="clip_0"><rect width="276" height="177"></rect></clipPath><g><g><g><line x1="0" y1="0" x2="0" y2="177" fill="rgb(0, 0, 0)" stroke="rgb(66, 66, 66)" stroke-width="1px" opacity="0.25"></line><line x1="27.6" y1="0" x2="27.6" y2="177" fill="rgb(0, 0, 0)" stroke="rgb(66, 66, 66)" stroke-width="1px" opacity="0.25"></line><line x1="55.2" y1="0" x2="55.2" y2="177" fill="rgb(0, 0, 0)" stroke="rgb(66, 66, 66)" stroke-width="1px" opacity="0.25"></line><line x1="82.8" y1="0" x2="82.8" y2="177" fill="rgb(0, 0, 0)" stroke="rgb(66, 66, 66)" stroke-width="1px" opacity="0.25"></line><line x1="110.4" y1="0" x2="110.4" y2="177" fill="rgb(0, 0, 0)" stroke="rgb(66, 66, 66)" stroke-width="1px" opacity="0.25"></line><line x1="138" y1="0" x2="138" y2="177" fill="rgb(0, 0, 0)" stroke="rgb(66, 66, 66)" stroke-width="1px" opacity="0.25"></line><line x1="165.6" y1="0" x2="165.6" y2="177" fill="rgb(0, 0, 0)" stroke="rgb(66, 66, 66)" stroke-width="1px" opacity="0.25"></line><line x1="193.2" y1="0" x2="193.2" y2="177" fill="rgb(0, 0, 0)" stroke="rgb(66, 66, 66)" stroke-width="1px" opacity="0.25"></line><line x1="220.8" y1="0" x2="220.8" y2="177" fill="rgb(0, 0, 0)" stroke="rgb(66, 66, 66)" stroke-width="1px" opacity="0.25"></line><line x1="248.4" y1="0" x2="248.4" y2="177" fill="rgb(0, 0, 0)" stroke="rgb(66, 66, 66)" stroke-width="1px" opacity="0.25"></line><line x1="276" y1="0" x2="276" y2="177" fill="rgb(0, 0, 0)" stroke="rgb(66, 66, 66)" stroke-width="1px" opacity="0.25"></line></g><g><line x1="0" y1="177" x2="276" y2="177" fill="rgb(0, 0, 0)" stroke="rgb(66, 66, 66)" stroke-width="1px" opacity="0.25"></line><line x1="0" y1="163.3846153846154" x2="276" y2="163.3846153846154" fill="rgb(0, 0, 0)" stroke="rgb(66, 66, 66)" stroke-width="1px" opacity="0.25"></line><line x1="0" y1="149.76923076923077" x2="276" y2="149.76923076923077" fill="rgb(0, 0, 0)" stroke="rgb(66, 66, 66)" stroke-width="1px" opacity="0.25"></line><line x1="0" y1="136.15384615384613" x2="276" y2="136.15384615384613" fill="rgb(0, 0, 0)" stroke="rgb(66, 66, 66)" stroke-width="1px" opacity="0.25"></line><line x1="0" y1="122.53846153846153" x2="276" y2="122.53846153846153" fill="rgb(0, 0, 0)" stroke="rgb(66, 66, 66)" stroke-width="1px" opacity="0.25"></line><line x1="0" y1="108.92307692307693" x2="276" y2="108.92307692307693" fill="rgb(0, 0, 0)" stroke="rgb(66, 66, 66)" stroke-width="1px" opacity="0.25"></line><line x1="0" y1="95.3076923076923" x2="276" y2="95.3076923076923" fill="rgb(0, 0, 0)" stroke="rgb(66, 66, 66)" stroke-width="1px" opacity="0.25"></line><line x1="0" y1="81.6923076923077" x2="276" y2="81.6923076923077" fill="rgb(0, 0, 0)" stroke="rgb(66, 66, 66)" stroke-width="1px" opacity="0.25"></line><line x1="0" y1="68.07692307692307" x2="276" y2="68.07692307692307" fill="rgb(0, 0, 0)" stroke="rgb(66, 66, 66)" stroke-width="1px" opacity="0.25"></line><line x1="0" y1="54.46153846153847" x2="276" y2="54.46153846153847" fill="rgb(0, 0, 0)" stroke="rgb(66, 66, 66)" stroke-width="1px" opacity="0.25"></line><line x1="0" y1="40.84615384615384" x2="276" y2="40.84615384615384" fill="rgb(0, 0, 0)" stroke="rgb(66, 66, 66)" stroke-width="1px" opacity="0.25"></line><line x1="0" y1="27.230769230769234" x2="276" y2="27.230769230769234" fill="rgb(0, 0, 0)" stroke="rgb(66, 66, 66)" stroke-width="1px" opacity="0.25"></line><line x1="0" y1="13.615384615384606" x2="276" y2="13.615384615384606" fill="rgb(0, 0, 0)" stroke="rgb(66, 66, 66)" stroke-width="1px" opacity="0.25"></line><line x1="0" y1="0" x2="276" y2="0" fill="rgb(0, 0, 0)" stroke="rgb(66, 66, 66)" stroke-width="1px" opacity="0.25"></line></g></g></g><g><g><line x1="0" y1="-354" x2="276" y2="-354" fill="rgb(0, 0, 0)" stroke="rgb(153, 153, 153)" stroke-width="1.5px"></line></g></g><g><g><line x1="27.6" y1="0" x2="27.6" y2="177" fill="rgb(0, 0, 0)" stroke="rgb(153, 153, 153)" stroke-width="1.5px"></line></g></g><g><g><g><g><g><path stroke="rgb(238, 51, 119)" stroke-width="2px" d="M29.808,66.9196070744441L32.016,53.134045732938404L34.224,72.85377742461922L36.432,86.02589458620926L38.64,86.03602331771685L40.848,68.16085770915954L43.056,70.84377634689531L45.264,70.9755187450584L47.471999999999994,70.05872257603497L49.68,69.02937087151312L51.888,65.5352901514018L54.096000000000004,57.386368354123114L56.303999999999995,54.728086472875574L58.512,53.449545597616606L60.72,50.303339988269386L62.928000000000004,47.02913816596973L65.136,46.039857232974356L67.344,47.55358730491441L69.552,47.078447892756415L71.76,45.82762246262902L73.968,44.38545250407752L76.176,42.567812613667094L78.38399999999999,42.19774153040266L80.592,42.89356351729471L82.8,41.83446592865883L85.008,41.700229827762286L87.216,43.421335289953106L89.424,43.56733486113538L91.632,44.36279519640239L93.84,45.65947089909405L96.04799999999999,47.76761894814676L98.256,48.72965169259846L100.464,49.32729769223482L102.672,49.56198061650594L104.88,49.24862287848909L107.08800000000001,50.37050730987896L109.296,50.65982438846903L111.504,52.83731272259715L113.71199999999999,53.04586588672725L115.92,53.53370352081951L118.128,53.12059001330224L120.336,52.85310990478771L122.544,53.5651067220746L124.75200000000001,55.16377303667685L126.96000000000001,54.397631685508124L129.168,54.3709067982623L131.376,54.358146073397975L133.584,55.92714519365334L135.792,57.96322690738537L138,59.80737424540768L140.208,61.315792392053524L142.416,63.54098046829147L144.624,64.95452471051465L146.832,65.74055765608728L149.04000000000002,64.46724089999171L151.24800000000002,64.4613545309806L153.45600000000002,66.53116058141933L155.664,68.08185017622556L157.87199999999999,71.90907329684143L160.07999999999998,74.26912956254002L162.28799999999998,76.90399952237985L164.49599999999998,78.94567063440147L166.704,82.07410141159043L168.912,84.02959127438821L171.12,83.30271466923021L173.328,82.28331440475328L175.536,79.64733314405383L177.744,77.9709918147676L179.952,75.96853155595791L182.16,75.07095836416373L184.36800000000002,73.14037765897297L186.57600000000002,73.20576843733089L188.78400000000002,71.84153131855838L190.992,69.18328333064818L193.2,66.16687974147781L195.408,66.33889709443599L197.61599999999999,67.47634156195011L199.82399999999998,65.33715606772894L202.03199999999998,62.671397362842946L204.24,61.60131667041008L206.448,60.83672646934339L208.656,60.3387649606325L210.864,59.25736936550208L213.072,58.89935476233006L215.28,59.11261954309514L217.488,58.66056169731143L219.696,57.27995236544212L221.90400000000002,55.73106167617634L224.11200000000002,54.55174069035125L226.32,52.368793531548526L228.528,51.491985159644294L230.736,52.45596370696447L232.944,54.034263883733956L235.152,53.24611346846154L237.35999999999999,54.05252422590865L239.568,52.20322361382045L241.776,51.80110474746896L243.984,50.868726343823944L246.192,48.8584431192451L248.4,47.11309265189567" style="fill: none;" fill="none"></path></g><g><path stroke="rgb(0, 119, 187)" stroke-width="2px" d="M29.808,41.186538461538454L32.016,28.2306438446045L34.224,69.87783301336982L36.432,81.09506897300624L38.64,81.0293200077901L40.848,69.98923664450754L43.056,65.81247211310126L45.264,66.86113350493798L47.471999999999994,66.8778941210321L49.68,66.92630106845564L51.888,66.91775873929792L54.096000000000004,64.03256045447178L56.303999999999995,65.8192247043193L58.512,67.69954123835015L60.72,71.74366640045983L62.928000000000004,73.84089568341349L65.136,72.02267296749592L67.344,69.89272696898341L69.552,69.49097622105005L71.76,69.4396031038968L73.968,68.29446174518463L76.176,66.91913556367336L78.38399999999999,65.39166994016003L80.592,64.10860165365993L82.8,63.173375073854665L85.008,61.77899515298499L87.216,59.705248879337745L89.424,57.83960072473745L91.632,56.666811384932025L93.84,55.66216020786548L96.04799999999999,54.530360690638084L98.256,54.67789387879875L100.464,56.167641690635215L102.672,57.26065190266827L104.88,58.92386685003055L107.08800000000001,61.12484268755789L109.296,61.32541652498401L111.504,60.267627840750194L113.71199999999999,59.81104160352304L115.92,59.92431060304051L118.128,57.711429152266994L120.336,55.71381737621621L122.544,54.448270330712866L124.75200000000001,54.64474476306512L126.96000000000001,51.75961606952833L129.168,50.06937503524141L131.376,48.9751868450221L133.584,50.16163723474425L135.792,51.25584182854155L138,52.502170680818956L140.208,49.90711849546797L142.416,46.15256211289482L144.624,44.03707907212031L146.832,44.099377851926114L149.04000000000002,43.3067538333006L151.24800000000002,41.798590780298376L153.45600000000002,38.874254847535404L155.664,37.61960981206671L157.87199999999999,35.64471238288287L160.07999999999998,34.5790415034977L162.28799999999998,34.38895331631138L164.49599999999998,34.511806766679854L166.704,34.69825462040457L168.912,35.169571480926614L171.12,36.03728131253431L173.328,36.61672660377663L175.536,36.85165799501838L177.744,36.78838606053266L179.952,36.675265710838765L182.16,35.20880829594445L184.36800000000002,34.918756563353895L186.57600000000002,33.52096970198468L188.78400000000002,31.005986456106676L190.992,29.910344427750562L193.2,32.027243409204424L195.408,32.99838283563683L197.61599999999999,33.01412998683889L199.82399999999998,31.78511345259017L202.03199999999998,31.188211907942314L204.24,31.34963950954906L206.448,31.71607802664295L208.656,34.38671036766849L210.864,35.68520342913469L213.072,35.61632938921159L215.28,34.295703958647216L217.488,31.29436883327123L219.696,30.356230017661023L221.90400000000002,31.476206272315423L224.11200000000002,30.944048207499804L226.32,33.47908113678954L228.528,35.77128478859415L230.736,35.84769396885956L232.944,36.04059626788424L235.152,35.67597650697456L237.35999999999999,36.190809950158354L239.568,39.48636895161543L241.776,41.02747022163032L243.984,41.73646541873538L246.192,41.08842109318838L248.4,38.889306787523616" style="fill: none;" fill="none"></path></g><g><path stroke="rgb(255, 112, 67)" stroke-width="2px" d="M29.808,73.04653015136718L32.016,75.34413669292742L34.224,76.6205694608823L36.432,57.9713761144094L38.64,47.384343954599565L40.848,33.49419477044053L43.056,26.41559661835619L45.264,20.717821134604176L47.471999999999994,17.235878601328928L49.68,14.836851388997815L51.888,16.935021535685216L54.096000000000004,18.167837399908638L56.303999999999995,16.80639237217079L58.512,21.102051158317376L60.72,23.48385561673584L62.928000000000004,26.617351209741614L65.136,29.174060231808994L67.344,32.60424937147584L69.552,32.285834569428516L71.76,31.133060062994435L73.968,30.74014630368333L76.176,29.98898333773304L78.38399999999999,29.964041942839554L80.592,30.445013983194162L82.8,30.231211226329915L85.008,30.545547058656126L87.216,31.391283991121806L89.424,30.551363459862312L91.632,31.088427010280235L93.84,31.457650732655647L96.04799999999999,31.669063123886065L98.256,30.778745495781923L100.464,32.77144548457162L102.672,33.94449499111899L104.88,34.685338177028456L107.08800000000001,33.742411110884376L109.296,32.2336498760937L111.504,31.03416321597393L113.71199999999999,28.72638086840315L115.92,28.408621113766163L118.128,27.123283018791234L120.336,27.619946374013814L122.544,28.850860834829806L124.75200000000001,28.95712181942594L126.96000000000001,28.40981489598562L129.168,28.05691573669796L131.376,27.892560837745815L133.584,27.176352589620617L135.792,27.99815605498537L138,28.030488998075626L140.208,26.760798375551992L142.416,24.734375378239974L144.624,22.92053827531828L146.832,21.12641992657726L149.04000000000002,21.608637882178574L151.24800000000002,20.705259633603745L153.45600000000002,21.99803540005436L155.664,22.425687507310254L157.87199999999999,21.569629939782732L160.07999999999998,22.634296368316814L162.28799999999998,22.150641391452744L164.49599999999998,22.664307893014648L166.704,21.418721830159768L168.912,20.86252075209231L171.12,19.38510447349096L173.328,18.43167472586142L175.536,17.42828574747596L177.744,16.724951372614253L179.952,17.211368810347338L182.16,16.514741020282944L184.36800000000002,14.734128942097646L186.57600000000002,16.008698143503807L188.78400000000002,16.95480084223212L190.992,19.287010989113295L193.2,21.11768482739225L195.408,22.568988863682904L197.61599999999999,24.697831494291517L199.82399999999998,25.62876913395472L202.03199999999998,27.383314947169765L204.24,27.976922092550662L206.448,30.187501099580842L208.656,32.6640759301812L210.864,34.02585024936472L213.072,36.25946663624743L215.28,37.55388066534221L217.488,38.53638864559954L219.696,37.315605723417406L221.90400000000002,35.58322292173069L224.11200000000002,36.318147770466325L226.32,41.35836697132429L228.528,44.44622088516841L230.736,47.84292981550612L232.944,47.887660871575314L235.152,48.37034564028295L237.35999999999999,47.30059530484283L239.568,48.67490899705835L241.776,49.14658085872181L243.984,48.85609905609847L246.192,49.18994370724679L248.4,49.656558246583685" style="fill: none;" fill="none"></path></g><g><path stroke="rgb(187, 187, 187)" stroke-width="2px" d="M29.808,91.63152184119592L32.016,105.73621972891002L34.224,72.04726767068378L36.432,50.33769265256847L38.64,35.44368860611996L40.848,30.98732284146237L43.056,24.06254080231786L45.264,20.709636677216782L47.471999999999994,21.921109570545212L49.68,20.98106320316609L51.888,21.754604802339248L54.096000000000004,20.860949235889077L56.303999999999995,24.56061260884147L58.512,22.02768813647697L60.72,24.76238863089022L62.928000000000004,24.905634083941692L65.136,23.668152769470556L67.344,24.201439174089465L69.552,24.77056371195542L71.76,25.954731657445954L73.968,24.55214773176229L76.176,23.267645868342807L78.38399999999999,23.57032238954877L80.592,24.814104657021588L82.8,26.53828074071662L85.008,26.39079233647148L87.216,28.004357236644303L89.424,29.506141406050485L91.632,32.74223734308227L93.84,32.61331478945734L96.04799999999999,31.820505294955L98.256,31.41617080179454L100.464,31.106025051152553L102.672,30.801268361052415L104.88,31.373343564777144L107.08800000000001,30.890640749272126L109.296,29.35889775513799L111.504,28.856740018405716L113.71199999999999,26.861151034091375L115.92,27.91196490446166L118.128,27.697757555786442L120.336,27.931955502635116L122.544,29.12630371057972L124.75200000000001,29.741611647277765L126.96000000000001,31.194027234911886L129.168,31.856359437442745L131.376,34.454541417520836L133.584,35.88274823170443L135.792,35.68910046771594L138,36.13168772579533L140.208,37.228872160722865L142.416,37.57349047642266L144.624,36.95678997395353L146.832,40.56355227464025L149.04000000000002,41.0104457240092L151.24800000000002,41.30308017854627L153.45600000000002,40.457507005114365L155.664,39.90768150550242L157.87199999999999,39.987893158109124L160.07999999999998,41.23198675874766L162.28799999999998,41.74316535002031L164.49599999999998,42.49265505060712L166.704,42.979927465460406L168.912,41.849207324378334L171.12,40.40286555298039L173.328,37.331003624156125L175.536,36.826006865749655L177.744,36.48215600872263L179.952,36.13043411755326L182.16,35.55832404099475L184.36800000000002,35.4160311771509L186.57600000000002,34.60195316016678L188.78400000000002,34.822596644447465L190.992,35.316059676872726L193.2,35.79677288169459L195.408,37.12922424208764L197.61599999999999,37.603551297055496L199.82399999999998,37.126786258251364L202.03199999999998,37.75730588581018L204.24,37.620952135001765L206.448,36.38400945708277L208.656,35.14353274005493L210.864,35.15897918805339L213.072,33.241949355530394L215.28,32.92334691575214L217.488,33.98861686714958L219.696,34.897360794117894L221.90400000000002,34.74169406436135L224.11200000000002,33.92939772993294L226.32,32.56137445902345L228.528,30.87299523581069L230.736,26.892904150200366L232.944,25.480247541953155L235.152,24.314058230700752L237.35999999999999,23.395404871563446L239.568,23.143212818520965L241.776,22.163539714099386L243.984,21.036571939186828L246.192,19.471568595453203L248.4,17.66335591463373" style="fill: none;" fill="none"></path></g><g><path stroke="rgb(238, 51, 119)" stroke-width="2px" d="M29.808,87.75117046649639L32.016,79.13518488957331L34.224,119.76641057132741L36.432,146.23754561497614L38.64,162.56223636595223L40.848,148.85765228306155L43.056,134.19805714100002L45.264,127.94788550621172L47.471999999999994,117.73663645639893L49.68,107.6862755060956L51.888,98.50604693800157L54.096000000000004,96.18006167509834L56.303999999999995,93.65094474031746L58.512,89.27706125585955L60.72,85.36449741020101L62.928000000000004,80.08571378801466L65.136,77.51096512890184L67.344,75.09864177419338L69.552,71.88239371422372L71.76,70.30882430932444L73.968,70.27480292881252L76.176,67.91576125781015L78.38399999999999,65.08284577802952L80.592,63.103821249000035L82.8,62.773492794341195L85.008,61.40691748910666L87.216,59.14841519663232L89.424,56.306608126297576L91.632,54.848403660158176L93.84,51.295262113713L96.04799999999999,48.98324639214093L98.256,47.550929542204834L100.464,47.112466320671516L102.672,47.15654896058293L104.88,47.70414601361797L107.08800000000001,47.48830491363682L109.296,47.62010528223092L111.504,48.11504309530498L113.71199999999999,47.17354095424406L115.92,44.2477366291822L118.128,41.686765754752116L120.336,38.19120993569433L122.544,36.409214204592026L124.75200000000001,35.35961215012746L126.96000000000001,33.93579743190568L129.168,33.23509718656359L131.376,32.79343624160913L133.584,31.80464037700462L135.792,30.051346050097358L138,28.203670554472605L140.208,29.43800170543594L142.416,29.850199047601755L144.624,29.971718080153817L146.832,32.8188970778128L149.04000000000002,35.634950307236316L151.24800000000002,36.44721098211858L153.45600000000002,38.18609580126069L155.664,38.54483478319034L157.87199999999999,38.69800119293094L160.07999999999998,39.73589769592695L162.28799999999998,39.35709375577729L164.49599999999998,40.30127961584616L166.704,41.84809217605819L168.912,43.41501581870586L171.12,43.69509309999757L173.328,45.916881956753436L175.536,47.562018822489485L177.744,49.5294186064444L179.952,52.41558761218395L182.16,55.72068698362655L184.36800000000002,55.31669976905215L186.57600000000002,56.520260621647665L188.78400000000002,56.1085075035475L190.992,58.36614125468255L193.2,58.07053755479274L195.408,59.26887432824828L197.61599999999999,60.388160722249474L199.82399999999998,60.342481675987884L202.03199999999998,59.91804750544253L204.24,58.129196423187345L206.448,58.06887903179705L208.656,59.645293953032564L210.864,59.949032591771484L213.072,58.84053997273119L215.28,58.67049792444402L217.488,60.681034575730166L219.696,62.07199195186835L221.90400000000002,62.33798445898161L224.11200000000002,60.61048964999834L226.32,59.69163154916361L228.528,59.15338027790559L230.736,57.948155251328714L232.944,57.86711392904248L235.152,57.31853261148194L237.35999999999999,57.18871158912478L239.568,55.856032974358314L241.776,54.59077366832895L243.984,54.61586556818485L246.192,55.34491400362123L248.4,55.24643673976286" style="fill: none;" fill="none"></path></g><g><path stroke="rgb(51, 187, 238)" stroke-width="2px" d="M29.808,120.2238295335036L32.016,72.2934364612286L34.224,77.02800019891522L36.432,67.61471455863163L38.64,54.43956304692818L40.848,40.63122686445839L43.056,36.59212762051854L45.264,39.89870738763844L47.471999999999994,35.60518640255656L49.68,36.80182025411196L51.888,36.377651707700274L54.096000000000004,33.97138860789967L56.303999999999995,30.51456662511701L58.512,26.71098234111132L60.72,23.67700237855396L62.928000000000004,21.23882704885695L65.136,25.119094442723544L67.344,29.545066661471687L69.552,29.53539389965139L71.76,30.17095984752157L73.968,33.36063557002537L76.176,37.30233738878083L78.38399999999999,40.60425462504167L80.592,42.85651721062566L82.8,44.91903779099216L85.008,45.46113344756857L87.216,45.67787592213581L89.424,45.86182106888539L91.632,46.642403644837465L93.84,45.38318435894255L96.04799999999999,47.289018909780324L98.256,50.062725907062834L100.464,49.066996975055034L102.672,47.795554875617896L104.88,46.52827885460698L107.08800000000001,45.453589334431705L109.296,43.73343945990549L111.504,42.74082285570102L113.71199999999999,41.328329816794124L115.92,41.59511162240423L118.128,40.12623755144108L120.336,41.006204050969615L122.544,43.16640131116335L124.75200000000001,44.367750473654944L126.96000000000001,40.51542285741032L129.168,38.73175540453929L131.376,39.26109669977464L133.584,39.76985203655283L135.792,40.0162858463341L138,40.21806252342708L140.208,39.84407500654242L142.416,39.38114734016207L144.624,38.739039590995176L146.832,36.399704647773724L149.04000000000002,34.84904689097696L151.24800000000002,33.32066893236195L153.45600000000002,32.85784287834736L155.664,31.61455520492302L157.87199999999999,31.647927083290373L160.07999999999998,29.478585727137578L162.28799999999998,27.472793620026444L164.49599999999998,25.949094215886046L166.704,27.90881434578761L168.912,28.169679946114396L171.12,27.285450076292438L173.328,25.926554281803053L175.536,24.70438406021771L177.744,24.09197829896115L179.952,20.1398759817805L182.16,18.025132958359183L184.36800000000002,17.28566167480514L186.57600000000002,17.278213035532136L188.78400000000002,19.265392740189526L190.992,19.6865332890956L193.2,22.94385976462319L195.408,25.094309210636887L197.61599999999999,25.737582183533615L199.82399999999998,26.05492057289056L202.03199999999998,24.570641271018058L204.24,23.2438229386926L206.448,22.660139917061734L208.656,23.817976885182937L210.864,26.08115741266022L213.072,26.81821283326321L215.28,26.951640121081702L217.488,25.412559343081703L219.696,26.287980411287705L221.90400000000002,27.724925322343548L224.11200000000002,29.477527120990285L226.32,32.56323530429494L228.528,33.003011419956806L230.736,34.76347245443802L232.944,34.60417046184552L235.152,35.38107414835133L237.35999999999999,38.172169597935L239.568,38.78646563346058L241.776,40.184357689120795L243.984,41.29922329361072L246.192,44.02188514428546L248.4,44.17522468633092" style="fill: none;" fill="none"></path></g></g></g></g><g opacity="0.2"><g><g><g><path stroke="rgb(238, 51, 119)" stroke-width="2px" d="M29.808,66.9196070744441L32.016,44.86270892803486L34.224,91.7847198486328L36.432,101.51630436823919L38.64,86.04924738957331L40.848,43.43306861290565L43.056,74.68039292555588L45.264,71.16760042630709L47.471999999999994,68.70662630521335L49.68,67.5009035550631L51.888,60.32586012620192L54.096000000000004,45.20733173076923L56.303999999999995,50.74934340256911L58.512,51.53423907940204L60.72,45.58772982083835L62.928000000000004,42.12014465332032L65.136,44.55635446401743L67.344,49.82379807692308L69.552,46.36581115722657L71.76,43.95149864783654L73.968,42.22227665827824L76.176,39.841412588266216L78.38399999999999,41.64264221191406L80.592,43.93728825495793L82.8,40.24582707331731L85.008,41.4988762488732L87.216,46.00298907940204L89.424,43.786333993765034L91.632,45.555984966571515L93.84,47.604483736478365L96.04799999999999,50.92984032264123L98.256,50.17270061786358L100.464,50.22376662034255L102.672,49.91400498610276L104.88,48.778586284930896L107.08800000000001,52.05333392803487L109.296,51.09380000187801L111.504,56.10354520357573L113.71199999999999,53.35869563176082L115.92,54.265459970327534L118.128,52.50091975285457L120.336,52.45188974233775L122.544,54.633101947490985L124.75200000000001,57.561772507887625L126.96000000000001,53.24841965895433L129.168,54.33081946739784L131.376,54.339004986102765L133.584,58.28064387394832L135.792,61.01734947791467L138,62.57359525240385L140.208,63.578419612004204L142.416,66.8787625826322L144.624,67.07484107384315L146.832,66.9196070744441L149.04000000000002,62.55726576585036L151.24800000000002,64.45252497746394L153.45600000000002,69.63586965707633L155.664,70.40788456843448L157.87199999999999,77.64990797776441L160.07999999999998,77.80921396108774L162.28799999999998,80.85630446213943L164.49599999999998,82.00817730243391L166.704,86.76674757737379L168.912,86.96282606858475L171.12,82.21239976149339L173.328,80.75421400803786L175.536,75.6933612530048L177.744,75.45647982083834L179.952,72.96484116774339L182.16,73.72459857647236L184.36800000000002,70.24450660118688L186.57600000000002,73.3038546048678L188.78400000000002,69.79517564039965L190.992,65.19591134878306L193.2,61.64227435772235L195.408,66.5969231238732L197.61599999999999,69.18250826322115L199.82399999999998,62.12837782639723L202.03199999999998,58.672759305513814L204.24,59.99619563176081L206.448,59.689841167743396L208.656,59.59182269756611L210.864,57.63527597280649L213.072,58.362332857572106L215.28,59.43251671424279L217.488,57.98247492863582L219.696,55.209038367638215L221.90400000000002,53.40772564227763L224.11200000000002,52.78275921161359L226.32,49.09437279334434L228.528,50.17677260178786L230.736,53.901931527944704L232.944,56.40171414888823L235.152,52.06388784555288L237.35999999999999,55.262140362079336L239.568,49.42927269568809L241.776,51.197926447941704L243.984,49.470158738356375L246.192,45.84301828237681L248.4,44.49506695087138" style="fill: none;" fill="none"></path></g><g><path stroke="rgb(0, 119, 187)" stroke-width="2px" d="M29.808,41.186538461538454L32.016,20.457107074444114L34.224,109.85913461538462L36.432,94.28653846153846L38.64,80.94347815880408L40.848,54.71682692307692L43.056,59.83963200495793L45.264,68.39009188138522L47.471999999999994,66.90261277418871L49.68,66.99817974384014L51.888,66.90502272385817L54.096000000000004,59.72046414888822L56.303999999999995,68.49338731032152L58.512,70.5163323035607L60.72,77.80510042630709L62.928000000000004,76.98526047926683L65.136,69.29610830453726L67.344,66.69834876427282L69.552,68.88841130183293L71.76,69.3625481238732L73.968,66.57681250939001L76.176,64.85619154710035L78.38399999999999,63.100501662034254L80.592,62.18401442307692L82.8,61.770541851337136L85.008,59.687431218073925L87.216,56.59463477501502L89.424,55.041131357046275L91.632,54.907628455528844L93.84,54.155183997521036L96.04799999999999,52.83266179011419L98.256,54.8991936316857L100.464,58.402263230543866L102.672,58.90016714242789L104.88,61.418689199594354L107.08800000000001,64.42630638709436L109.296,61.62627727801982L111.504,58.68094482421874L113.71199999999999,59.126162250225356L115.92,60.0942141019381L118.128,54.392106980543865L120.336,52.71739971454326L122.544,52.54994976337139L124.75200000000001,54.93945641150842L126.96000000000001,47.43192302997295L129.168,47.53401348407452L131.376,47.33390455979568L133.584,51.94131281926082L135.792,52.897148719200715L138,54.37166395920973L140.208,46.01454021747296L142.416,40.52072753906249L144.624,40.86385451096754L146.832,44.19282602163462L149.04000000000002,42.11781780536358L151.24800000000002,39.53634620079627L153.45600000000002,34.48775094839243L155.664,35.73764225886418L157.87199999999999,32.68236623910757L160.07999999999998,32.98053518442008L162.28799999999998,34.10382103553186L164.49599999999998,34.69608694223257L166.704,34.97792640099159L168.912,35.87654677170973L171.12,37.33884605994591L173.328,37.485894540640025L175.536,37.204055081881L177.744,36.69347815880408L179.952,36.50558518629808L182.16,33.00912217360277L184.36800000000002,34.483678964468155L186.57600000000002,31.424289409930882L188.78400000000002,27.233511587289666L190.992,28.266881385216344L193.2,35.20259188138521L195.408,34.45509197528546L197.61599999999999,33.03775071364183L199.82399999999998,29.94158865121694L202.03199999999998,30.292859590970544L204.24,31.591780911959127L206.448,32.26573580228364L208.656,38.39265887920674L210.864,37.632943021334135L213.072,35.51301832932692L215.28,32.31476581280049L217.488,26.792366145207325L219.696,28.949021794245787L221.90400000000002,33.15617065429688L224.11200000000002,30.14581111027645L226.32,37.281630530724165L228.528,39.20959026630107L230.736,35.96230773925782L232.944,36.329949716421275L235.152,35.12904686560998L237.35999999999999,36.963060114933896L239.568,44.42970745380108L241.776,43.33912212665263L243.984,42.79995821439302L246.192,40.11635460486779L248.4,35.59063532902645" style="fill: none;" fill="none"></path></g><g><path stroke="rgb(255, 112, 67)" stroke-width="2px" d="M29.808,73.04653015136718L32.016,76.7227006178636L34.224,77.84594491811899L36.432,36.039924738957325L38.64,33.5619147667518L40.848,14.279117995042068L43.056,16.293088003305282L45.264,12.410409780649035L47.471999999999994,12.10068969726563L49.68,11.274575570913461L51.888,20.063246506911053L54.096000000000004,20.010352266751802L56.303999999999995,14.768670184795663L58.512,27.53712369478666L60.72,27.053762582632213L62.928000000000004,31.315384615384623L65.136,33.00804185133714L67.344,37.748662156325125L69.552,31.808260873647843L71.76,29.404003671499396L73.968,30.15079721304086L76.176,28.86226360614483L78.38399999999999,29.926630342923673L80.592,31.16646634615384L82.8,29.910508610652037L85.008,31.01704946664664L87.216,32.65988722581129L89.424,29.29148395244892L91.632,31.89402184119591L93.84,32.011486112154444L96.04799999999999,31.98618164062499L98.256,29.443269230769225L100.464,35.76049522986778L102.672,35.70406916691707L104.88,35.79660292405348L107.08800000000001,32.32802053598258L109.296,29.970508047250604L111.504,29.234933236929084L113.71199999999999,25.26470735990084L115.92,27.931981482872594L118.128,25.19527587890626L120.336,28.364941406250004L122.544,30.697232525165266L124.75200000000001,29.116513296274032L126.96000000000001,27.588854510967547L129.168,27.52756699782152L131.376,27.646028489332924L133.584,26.102040217472954L135.792,29.230861253004807L138,28.078988412710334L140.208,24.85626244178186L142.416,21.694740882286652L144.624,20.199782620943502L146.832,18.43524240347056L149.04000000000002,22.331964815579923L151.24800000000002,19.350192260742183L153.45600000000002,23.937199049729568L155.664,23.067165668194118L157.87199999999999,20.28554358849159L160.07999999999998,24.23129601111779L162.28799999999998,21.425158926156854L164.49599999999998,23.434807645357573L166.704,19.550342735877397L168.912,20.02821913499098L171.12,17.168980055588943L173.328,17.001530104417068L175.536,15.923202279897827L177.744,15.669949810321516L179.952,17.940994966947123L182.16,15.469799335186304L184.36800000000002,12.063210824819711L186.57600000000002,17.92055194561299L188.78400000000002,18.373954890324512L190.992,22.785326209435098L193.2,23.863695584810706L195.408,24.745944918118994L197.61599999999999,27.891095440204328L199.82399999999998,27.025175593449525L202.03199999999998,30.01513366699219L204.24,28.867332810622L206.448,33.50336961012621L208.656,36.378938176081725L210.864,36.06851172814002L213.072,39.60989121657152L215.28,39.49550170898437L217.488,40.01015061598557L219.696,35.48443134014423L221.90400000000002,32.98464871920073L224.11200000000002,37.42053504356972L226.32,48.91869577261117L228.528,49.078001755934494L230.736,52.937993211012625L232.944,47.95475745567908L235.152,49.09437279334434L237.35999999999999,45.69596980168269L239.568,50.7363795353816L241.776,49.85408865121695L243.984,48.42037635216346L246.192,49.69071068396935L248.4,50.356480055588946" style="fill: none;" fill="none"></path></g><g><path stroke="rgb(187, 187, 187)" stroke-width="2px" d="M29.808,91.63152184119592L32.016,114.19903846153845L34.224,39.70587369478666L36.432,24.80723243126502L38.64,15.998076923076924L40.848,24.822564697265634L43.056,14.15999168982873L45.264,15.821070274939908L47.471999999999994,23.707796771709734L49.68,19.58520390437199L51.888,22.907901235727167L54.096000000000004,19.52532912034255L56.303999999999995,30.09802762545072L58.512,18.233263690655047L60.72,28.86122483473557L62.928000000000004,25.12040123572716L65.136,21.81245445838342L67.344,25.001233379657453L69.552,25.62416381835937L71.76,27.73087533804086L73.968,22.44834876427283L76.176,21.340935340294465L78.38399999999999,24.02433119553785L80.592,26.679763324444114L82.8,29.12453261155348L85.008,26.169560359074516L87.216,30.424700458233172L89.424,31.758815354567307L91.632,37.59637826772837L93.84,32.419931030273446L96.04799999999999,30.631291316105766L98.256,30.809669142503L100.464,30.64080646221454L102.672,30.34413334773136L104.88,32.23145634577824L107.08800000000001,30.16658653846154L109.296,27.06128328763521L111.504,28.103503417968746L113.71199999999999,23.867767568734983L115.92,29.488185706505416L118.128,27.37644653320313L120.336,28.283252422626195L122.544,30.91782602163461L124.75200000000001,30.6645735520583L126.96000000000001,33.37265061598558L129.168,32.84985774113582L131.376,38.351814387394825L133.584,38.025058452899636L135.792,35.39862882173978L138,36.795568612905655L140.208,38.874648813100954L142.416,38.09041794996996L144.624,36.0317392202524L146.832,45.97369572566105L149.04000000000002,41.68078589806189L151.24800000000002,41.74203186035157L153.45600000000002,39.18914724496694L155.664,39.08294325608474L157.87199999999999,40.10821063701923L160.07999999999998,43.09812715970553L162.28799999999998,42.50993323692908L164.49599999999998,43.61688960148738L166.704,43.71083608774039L168.912,40.153127112755406L171.12,38.23335289588342L173.328,32.72321073091947L175.536,36.06851172814002L177.744,35.966379723182094L179.952,35.602851280799285L182.16,34.700158926156845L184.36800000000002,35.20259188138521L186.57600000000002,33.380836134690504L188.78400000000002,35.153561870868394L190.992,36.05625422551081L193.2,36.51784268892728L195.408,39.127901282677286L197.61599999999999,38.31504187950721L199.82399999999998,36.41163870004508L202.03199999999998,38.70308532714843L204.24,37.41642150878907L206.448,34.52859544020433L208.656,33.28281766451323L210.864,35.18214886005108L213.072,30.366404606745796L215.28,32.44544325608473L217.488,35.586521794245805L219.696,36.26047668457032L221.90400000000002,34.50819396972656L224.11200000000002,32.710953228290265L226.32,30.50933955265926L228.528,28.340426400991593L230.736,20.922767521784863L232.944,23.361262629582324L235.152,22.564774263822123L237.35999999999999,22.017424832857564L239.568,22.764924738957333L241.776,20.69403005746694L243.984,19.346120276817906L246.192,17.12406357985277L248.4,14.951036893404456" style="fill: none;" fill="none"></path></g><g><path stroke="rgb(238, 51, 119)" stroke-width="2px" d="M29.808,87.75117046649639L32.016,73.96559354341947L34.224,158.7723872258113L36.432,177.3676004263071L38.64,183.8757526104267L40.848,129.89927884615383L43.056,113.23460153432993L45.264,118.83507526104268L47.471999999999994,102.6770275409405L49.68,92.76266080416164L51.888,84.81896808330829L54.096000000000004,92.70374168982873L56.303999999999995,89.86552734375L58.512,82.7248049222506L60.72,79.50025071364183L62.928000000000004,72.17126136192908L65.136,73.64993168757512L67.344,71.48076923076923L69.552,67.05851158728966L71.76,67.94861403245191L73.968,70.22377272385818L76.176,64.37727637657753L78.38399999999999,60.83352848933293L80.592,60.135307898888215L82.8,62.27800246018629L85.008,59.35706035907452L87.216,55.760667536808896L89.424,52.04390188363883L91.632,52.66109830416167L93.84,45.96555175781249L96.04799999999999,45.51522357647236L98.256,45.40245455228364L100.464,46.45477154071515L102.672,47.22267291729266L104.88,48.52554156963642L107.08800000000001,47.16454326923076L109.296,47.81780583308293L111.504,48.85744981032152L113.71199999999999,45.76128774789663L115.92,39.85903015136718L118.128,37.84530944824218L120.336,32.94787621131311L122.544,33.73622060922475L124.75200000000001,33.78520906888522L126.96000000000001,31.800075354942916L129.168,32.18404681865986L131.376,32.13094482421876L133.584,30.321446580153253L135.792,27.421404559795672L138,25.432157311072714L140.208,31.289498431865976L142.416,30.468495060847363L144.624,30.15399662898138L146.832,37.089665574293875L149.04000000000002,39.85903015136718L151.24800000000002,37.665601994441104L153.45600000000002,40.794423029972954L155.664,39.08294325608474L157.87199999999999,38.92775080754207L160.07999999999998,41.29274245042067L162.28799999999998,38.788887845552885L164.49599999999998,41.717558405949525L166.704,44.16831101637621L168.912,45.76540128267728L171.12,44.115209021935094L173.328,49.24956524188701L175.536,50.02972412109375L177.744,52.480518282376806L179.952,56.744841120793275L182.16,60.67833604079027L184.36800000000002,54.7107189471905L186.57600000000002,58.32560190054086L188.78400000000002,55.49087782639723L190.992,61.752591881385214L193.2,57.62713200495793L195.408,61.066379488431494L197.61599999999999,62.06709031325121L199.82399999999998,60.27396310659555L202.03199999999998,59.2813962496244L204.24,55.44591979980469L206.448,57.97840294471153L208.656,62.00991633488582L210.864,60.40464054987981L213.072,57.177801044170664L215.28,58.41543485201323L217.488,63.696839552659256L219.696,64.15842801607573L221.90400000000002,62.736973219651446L224.11200000000002,58.01924743652343L226.32,58.313344397911656L228.528,58.346003371018625L230.736,56.14031771146334L232.944,57.74555194561299L235.152,56.49566063514122L237.35999999999999,56.99398005558894L239.568,53.85701505220853L241.776,52.692884709284854L243.984,54.65350341796875L246.192,56.438486656775844L248.4,55.098720843975364" style="fill: none;" fill="none"></path></g><g><path stroke="rgb(51, 187, 238)" stroke-width="2px" d="M29.808,120.2238295335036L32.016,43.53520061786359L34.224,81.57318138709437L36.432,56.544690645658044L38.64,37.238085233248206L40.848,21.529326923076926L43.056,30.816151076096755L45.264,44.71973243126503L47.471999999999994,29.273076923076918L49.68,38.578682063176075L51.888,35.74524606557993L54.096000000000004,30.375088735727157L56.303999999999995,25.340620774489178L58.512,21.01305753267729L60.72,19.12959876427284L62.928000000000004,17.583283644456134L65.136,30.937853534405047L67.344,36.18290123572716L69.552,29.520886230468754L71.76,31.12425067608173L73.968,38.144974224384015L76.176,43.21476041353665L78.38399999999999,45.557065288837144L80.592,46.23488440880409L82.8,48.01280400202824L85.008,46.27427462064303L87.216,46.00298907940204L89.424,46.13773850661058L91.632,47.81327678973859L93.84,43.49435612605168L96.04799999999999,50.147770104041456L98.256,54.22328585111177L100.464,47.57340369591346L102.672,45.88839181753305L104.88,44.62736487755408L107.08800000000001,43.84155508188102L109.296,41.15321467472957L111.504,41.25189795860878L113.71199999999999,39.20959026630107L115.92,41.99528432992788L118.128,37.92292644794171L120.336,42.326153799203716L122.544,46.40669719989483L124.75200000000001,46.169774216872L126.96000000000001,34.736931434044465L129.168,36.05625422551081L131.376,40.05510864257813L133.584,40.532985041691695L135.792,40.38593656099761L138,40.52072753906249L140.208,39.28309373121996L142.416,38.68675584059495L144.624,37.7758779672476L146.832,32.89070223294771L149.04000000000002,32.52306025578426L151.24800000000002,31.02810199444111L153.45600000000002,32.16360379732573L155.664,29.749623694786656L157.87199999999999,31.697984900841348L160.07999999999998,26.224573692908656L162.28799999999998,24.464105459359974L164.49599999999998,23.663545109675475L166.704,30.848394540640026L168.912,28.560978346604568L171.12,25.95910527155949L173.328,23.888210590069118L175.536,22.87112872783955L177.744,23.173369657076314L179.952,14.211722506009615L182.16,14.853018423227164L184.36800000000002,16.17645474947416L186.57600000000002,17.267040076622603L188.78400000000002,22.246162297175488L190.992,20.318244112454927L193.2,27.82984947791467L195.408,28.31998337965746L197.61599999999999,26.702491642878613L199.82399999999998,26.530928156926088L202.03199999999998,22.344222318209127L204.24,21.253595440204332L206.448,21.784615384615385L208.656,25.554732337364786L210.864,29.47592820387621L213.072,27.923795964167667L215.28,27.151781052809486L217.488,23.103938176081734L219.696,27.60111201359675L221.90400000000002,29.880342688927286L224.11200000000002,32.10642981896033L226.32,37.1917975792518L228.528,33.66267559344952L230.736,37.40416400615987L232.944,34.36521747295673L235.152,36.546429678109966L237.35999999999999,42.358812772310706L239.568,39.70790968674879L241.776,42.28119577261118L243.984,42.97152170034555L246.192,48.105877920297466L248.4,44.40523399939904" style="fill: none;" fill="none"></path></g></g></g></g></g></g><g transform="translate(54, 177)" clip-path="url(#clip_1)"><clipPath id="clip_1"><rect width="276" height="23"></rect></clipPath><g><g><line x1="0" y1="0" x2="0" y2="5" style="visibility: inherit;" fill="rgb(0, 0, 0)" stroke="rgb(204, 204, 204)" stroke-width="1px"></line><line x1="27.6" y1="0" x2="27.6" y2="5" style="visibility: inherit;" fill="rgb(0, 0, 0)" stroke="rgb(204, 204, 204)" stroke-width="1px"></line><line x1="55.2" y1="0" x2="55.2" y2="5" style="visibility: inherit;" fill="rgb(0, 0, 0)" stroke="rgb(204, 204, 204)" stroke-width="1px"></line><line x1="82.8" y1="0" x2="82.8" y2="5" style="visibility: inherit;" fill="rgb(0, 0, 0)" stroke="rgb(204, 204, 204)" stroke-width="1px"></line><line x1="110.4" y1="0" x2="110.4" y2="5" style="visibility: inherit;" fill="rgb(0, 0, 0)" stroke="rgb(204, 204, 204)" stroke-width="1px"></line><line x1="138" y1="0" x2="138" y2="5" style="visibility: inherit;" fill="rgb(0, 0, 0)" stroke="rgb(204, 204, 204)" stroke-width="1px"></line><line x1="165.6" y1="0" x2="165.6" y2="5" style="visibility: inherit;" fill="rgb(0, 0, 0)" stroke="rgb(204, 204, 204)" stroke-width="1px"></line><line x1="193.2" y1="0" x2="193.2" y2="5" style="visibility: inherit;" fill="rgb(0, 0, 0)" stroke="rgb(204, 204, 204)" stroke-width="1px"></line><line x1="220.8" y1="0" x2="220.8" y2="5" style="visibility: inherit;" fill="rgb(0, 0, 0)" stroke="rgb(204, 204, 204)" stroke-width="1px"></line><line x1="248.4" y1="0" x2="248.4" y2="5" style="visibility: inherit;" fill="rgb(0, 0, 0)" stroke="rgb(204, 204, 204)" stroke-width="1px"></line><line x1="276" y1="0" x2="276" y2="5" style="visibility: inherit;" fill="rgb(0, 0, 0)" stroke="rgb(204, 204, 204)" stroke-width="1px"></line></g><g transform="translate(0, 8)"><text x="0" y="0" dx="0em" dy="0.95em" style="text-anchor: middle; visibility: hidden; font-family: Roboto, sans-serif; font-size: 12px; font-weight: 200;" fill="rgb(33, 33, 33)" stroke="none" stroke-width="1px">-5k</text><text x="27.6" y="0" dx="0em" dy="0.95em" style="text-anchor: middle; visibility: inherit; font-family: Roboto, sans-serif; font-size: 12px; font-weight: 200;" fill="rgb(33, 33, 33)" stroke="none" stroke-width="1px">0</text><text x="55.2" y="0" dx="0em" dy="0.95em" style="text-anchor: middle; visibility: inherit; font-family: Roboto, sans-serif; font-size: 12px; font-weight: 200;" fill="rgb(33, 33, 33)" stroke="none" stroke-width="1px">5k</text><text x="82.8" y="0" dx="0em" dy="0.95em" style="text-anchor: middle; visibility: inherit; font-family: Roboto, sans-serif; font-size: 12px; font-weight: 200;" fill="rgb(33, 33, 33)" stroke="none" stroke-width="1px">10k</text><text x="110.4" y="0" dx="0em" dy="0.95em" style="text-anchor: middle; visibility: inherit; font-family: Roboto, sans-serif; font-size: 12px; font-weight: 200;" fill="rgb(33, 33, 33)" stroke="none" stroke-width="1px">15k</text><text x="138" y="0" dx="0em" dy="0.95em" style="text-anchor: middle; visibility: inherit; font-family: Roboto, sans-serif; font-size: 12px; font-weight: 200;" fill="rgb(33, 33, 33)" stroke="none" stroke-width="1px">20k</text><text x="165.6" y="0" dx="0em" dy="0.95em" style="text-anchor: middle; visibility: inherit; font-family: Roboto, sans-serif; font-size: 12px; font-weight: 200;" fill="rgb(33, 33, 33)" stroke="none" stroke-width="1px">25k</text><text x="193.2" y="0" dx="0em" dy="0.95em" style="text-anchor: middle; visibility: inherit; font-family: Roboto, sans-serif; font-size: 12px; font-weight: 200;" fill="rgb(33, 33, 33)" stroke="none" stroke-width="1px">30k</text><text x="220.8" y="0" dx="0em" dy="0.95em" style="text-anchor: middle; visibility: inherit; font-family: Roboto, sans-serif; font-size: 12px; font-weight: 200;" fill="rgb(33, 33, 33)" stroke="none" stroke-width="1px">35k</text><text x="248.4" y="0" dx="0em" dy="0.95em" style="text-anchor: middle; visibility: inherit; font-family: Roboto, sans-serif; font-size: 12px; font-weight: 200;" fill="rgb(33, 33, 33)" stroke="none" stroke-width="1px">40k</text><text x="276" y="0" dx="0em" dy="0.95em" style="text-anchor: middle; visibility: hidden; font-family: Roboto, sans-serif; font-size: 12px; font-weight: 200;" fill="rgb(33, 33, 33)" stroke="none" stroke-width="1px">45k</text></g><line x1="0" y1="0" x2="276" y2="0" fill="rgb(0, 0, 0)" stroke="rgb(204, 204, 204)" stroke-width="1px"></line></g></g></g></g></svg>